<svg xmlns="http://www.w3.org/2000/svg" width="20" height="20">
    <g fill="none" fill-rule="evenodd">
        <path d="M0 0h20v20H0z"/>
        <path fill="#FFF" fill-rule="nonzero" d="M15.243 5.932a.83.83 0 00.003-1.178.832.832 0 00-1.178.003L10.59 8.235a.834.834 0 01-1.18 0L5.932 4.757a.83.83 0 00-1.178-.003.832.832 0 00.003 1.178L8.235 9.41a.834.834 0 010 1.18l-3.478 3.478a.83.83 0 00-.003 1.178.832.832 0 001.178-.003l3.478-3.478a.834.834 0 011.18 0l3.478 3.478a.83.83 0 001.178.003.832.832 0 00-.003-1.178l-3.478-3.478a.834.834 0 010-1.18l3.478-3.478z"/>
    </g>
</svg>